<svg xmlns="http://www.w3.org/2000/svg" width="98.454" height="98.087" viewBox="0 0 98.454 98.087">
  <g id="Group_603" data-name="Group 603" transform="translate(-2606 -2456.965)">
    <g id="Group_598" data-name="Group 598" transform="translate(1549 2071)">
      <g id="Group_595" data-name="Group 595" transform="translate(600.506 723.984)">
        <g id="Group_586" data-name="Group 586">
          <path id="Path_675" data-name="Path 675" d="M472.632-283.005c.062-3.855-.063-7.784,0-11.719,1.5.024,4.756.084,6.907.08a3.941,3.941,0,0,0,4.215-3.645,4.162,4.162,0,0,0,.005-.487,4.119,4.119,0,0,0-.544-1.8c-1.408-2.516-2.861-5.006-4.326-7.49a3.953,3.953,0,0,0-5.38-1.517q-.108.062-.213.129c-1.118.6-2.2,1.255-3.3,1.887a3.548,3.548,0,0,1-4.91-1.03c-.041-.063-.08-.127-.117-.193-.518-.827-.985-1.686-1.454-2.543a3.532,3.532,0,0,1-.07-2.924q1.861-5.589,3.787-11.156c.943-2.746,1.9-5.489,2.877-8.221a3.62,3.62,0,0,1,3.976-2.307c3.053.539,6.1,1.135,9.14,1.724,3.717.718,7.429,1.459,11.145,2.178a3.384,3.384,0,0,1,2.557,1.762,21.143,21.143,0,0,1,1.681,3.461,3.153,3.153,0,0,1-1.534,3.578c-1.086.658-2.179,1.309-3.3,1.9a4.047,4.047,0,0,0-2.309,4.4,4.1,4.1,0,0,0,.52,1.349c1.408,2.486,2.812,4.976,4.275,7.43a3.814,3.814,0,0,0,5.21,1.4,3.827,3.827,0,0,0,1.406-1.41c3.368-5.592,4.016-6.865,4.016-6.865s6.993,3.913,10.277,5.88c-.958,1.642-.113.086-4.076,6.774a3.814,3.814,0,0,0,1.161,5.269,3.813,3.813,0,0,0,2.313.591c2.787-.065,5.576-.051,8.364-.081a4.011,4.011,0,0,0,4.25-3.757,4.212,4.212,0,0,0,0-.476c.018-1.2,0-2.4.017-3.6a3.635,3.635,0,0,1,3.478-3.787h.022a26.439,26.439,0,0,1,3.006-.024,3.771,3.771,0,0,1,2.757,1.344q6.594,7.391,13.193,14.776c1.7,1.916,1.64,3.678-.076,5.6q-6.546,7.332-13.069,14.684a4.346,4.346,0,0,1-3.572,1.678c-.806-.03-1.616.029-2.42-.009a3.509,3.509,0,0,1-3.518-3.5c0-.027,0-.053,0-.079-.038-1.32-.011-2.642-.019-3.963a3.592,3.592,0,0,0-3.31-3.854,3.577,3.577,0,0,0-.4-.008c-3.152-.031-6.312-.05-9.458.127a3.575,3.575,0,0,0-3.42,3.724,3.576,3.576,0,0,0,.446,1.582l3.2,5.478-10.315,6.067-3.159-5.429a3.761,3.761,0,0,0-5.087-1.551,3.756,3.756,0,0,0-1.53,1.514q-1.75,2.926-3.46,5.876c-1.5,2.593-1.272,5.1.684,7.133a6.406,6.406,0,0,0,1.414,1.032,5.455,5.455,0,0,1,2.777,5.542,5.665,5.665,0,0,1-4.273,4.615c-5.85,1.256-11.718,2.43-17.557,3.732a5.769,5.769,0,0,1-7.017-4.162l-.019-.076c-1.3-4.268-2.835-8.465-4.211-12.712a24.612,24.612,0,0,1-1.372-5.216,5.423,5.423,0,0,1,5.146-5.688,5.421,5.421,0,0,1,2.389.424c.584.249,1.147.549,1.734.791a5.647,5.647,0,0,0,7.181-2.638c1.055-1.956,2.229-3.847,3.343-5.771a3.717,3.717,0,0,0-.944-5.171,3.712,3.712,0,0,0-2.356-.652Z" fill="none" stroke="#003845" stroke-linecap="round" stroke-linejoin="round" stroke-width="4"/>
          <path id="Polygon_1" data-name="Polygon 1" d="M489.692-288a9.175,9.175,0,0,1,8.983-9.363,9.171,9.171,0,0,1,4.941,1.324h0a9.175,9.175,0,0,1,3.1,12.6,9.177,9.177,0,0,1-3.265,3.2h0A9.175,9.175,0,0,1,490.92-283.6,9.182,9.182,0,0,1,489.692-288Z" fill="#003845"/>
        </g>
        <g id="Group_594" data-name="Group 594">
          <path id="Path_753" data-name="Path 753" d="M508.9-329.192a1.969,1.969,0,0,1,.47.068,42.205,42.205,0,0,1,18.822,10.859,2,2,0,0,1,0,2.828,2,2,0,0,1-2.828,0,38.2,38.2,0,0,0-17.036-9.828,2,2,0,0,1-1.412-2.45A2,2,0,0,1,508.9-329.192Zm-48.983,28.265a2.039,2.039,0,0,1,.471.069,2,2,0,0,1,1.41,2.452,37.768,37.768,0,0,0-1.292,8.87,38.041,38.041,0,0,0,1.283,10.79,2.056,2.056,0,0,1-1.388,2.517,1.946,1.946,0,0,1-2.438-1.343l-.046-.172a42.008,42.008,0,0,1-1.41-11.894,41.8,41.8,0,0,1,1.429-9.81A2,2,0,0,1,459.917-300.927ZM526.881-262.3a2,2,0,0,1,1.359.582,2,2,0,0,1,.007,2.829A42,42,0,0,1,509.44-248a2,2,0,0,1-2.451-1.411,2,2,0,0,1,1.41-2.451,37.977,37.977,0,0,0,17.013-9.849A2,2,0,0,1,526.881-262.3Z" fill="#003845"/>
        </g>
      </g>
    </g>
  </g>
</svg>
