<svg width="120" height="120" viewBox="0 0 58 60" fill="none" xmlns="http://www.w3.org/2000/svg"><path d="M14.827 52.783L33.54 41.979l-6.738-11.55-3.405 5.883 3.255 1.874-1.036 1.79-6.749.36-3.069-6.015 1.036-1.79 3.255 1.875 3.386-5.852-13.323-.046-.022 21.57c-.003 2.409 2.607 3.912 4.697 2.705z" fill="#163F59"/><path d="M10.154 24.707l.022-21.57C10.18.729 12.792-.78 14.88.423l18.69 10.766-6.724 11.502-3.375-5.845 3.259-1.881-1.033-1.788-6.755-.342-3.074 6.017L16.9 20.64l3.258-1.882 3.393 5.876-13.396.074zM36.89 13.071l18.69 10.766c2.088 1.202 2.085 4.214-.005 5.42L36.862 40.062l-6.598-11.547 6.761-.007-.003 3.756 2.067-.003 3.686-5.672-3.674-5.658-2.068.003-.004 3.755-6.797.007 6.658-11.624z" fill="#34C88A"/></svg>