<svg width="183" height="57" fill="none" xmlns="http://www.w3.org/2000/svg"><path d="M9.742 3.283v21.274a1.3 1.3 0 0 0 1.292 1.312l9.496-.044c.987-.004 1.601-1.095 1.108-1.966l-1.231-2.174a1.909 1.909 0 0 0-2.635-.72l-.13.077a1.887 1.887 0 0 1-2.605-.712 1.978 1.978 0 0 1-.158-1.587l1.975-6.028a1.925 1.925 0 0 1 2.214-1.305l6.113 1.268c.535.11.998.45 1.271.933.527.93.214 2.118-.697 2.655l-.132.077c-.922.543-1.238 1.746-.706 2.687l1.213 2.14a1.274 1.274 0 0 0 2.224.006l4.747-8.298a1.325 1.325 0 0 0-.467-1.797L14.564.444C12.422-.818 9.743.76 9.743 3.284zm46.651 21.799l-18.07-10.637a1.273 1.273 0 0 0-1.759.485l-4.711 8.407c-.49.874.129 1.962 1.116 1.962h3.105c.71 0 1.286-.587 1.286-1.311v-1.443c0-.724.576-1.311 1.286-1.311h.9c.368 0 .718.16.963.442l4.694 5.405a1.33 1.33 0 0 1 0 1.738l-4.694 5.413a1.275 1.275 0 0 1-.964.442h-.9c-.71 0-1.285-.587-1.285-1.31V31.92c0-.724-.576-1.311-1.286-1.311h-3.068c-.987 0-1.606 1.087-1.116 1.961l4.674 8.341a1.272 1.272 0 0 0 1.76.485L56.393 30.76c2.143-1.261 2.143-4.416 0-5.678z" fill="#34C88A"/><path d="M14.556 55.358l18.069-10.637a1.325 1.325 0 0 0 .467-1.796l-4.784-8.363a1.274 1.274 0 0 0-2.225.005l-1.552 2.74a1.325 1.325 0 0 0 .47 1.792l1.226.721c.615.362.826 1.164.47 1.792l-.45.794a1.287 1.287 0 0 1-.856.63l-6.938 1.442a1.283 1.283 0 0 1-1.477-.868l-2.25-6.853a1.334 1.334 0 0 1 .107-1.071l.45-.795a1.273 1.273 0 0 1 1.756-.48l1.225.722a1.273 1.273 0 0 0 1.757-.48l1.534-2.71c.493-.871-.121-1.962-1.108-1.966l-9.422-.043a1.299 1.299 0 0 0-1.292 1.311V52.52c0 2.523 2.68 4.1 4.823 2.838zm65.54-35.71c1.067 0 2.4.15 4 .448l.8.16-.128 2.752a73.56 73.56 0 0 0-2.208-.192 23.07 23.07 0 0 0-1.536-.064c-.81 0-1.483.085-2.016.256-.512.15-.928.427-1.248.832-.299.405-.512.939-.64 1.6-.128.661-.192 1.493-.192 2.496s.053 1.845.16 2.528c.128.661.341 1.205.64 1.632.299.405.715.704 1.248.896.555.17 1.248.256 2.08.256l3.744-.256.096 2.784c-2.133.384-3.755.576-4.864.576-1.216 0-2.25-.16-3.104-.48A4.78 4.78 0 0 1 74.88 34.4c-.512-.683-.885-1.557-1.12-2.624-.235-1.067-.352-2.347-.352-3.84 0-1.493.128-2.763.384-3.808.256-1.067.65-1.93 1.184-2.592.533-.661 1.227-1.141 2.08-1.44.853-.299 1.867-.448 3.04-.448zm20.012 5.28v7.296c.022.47.139.821.352 1.056.235.213.587.352 1.056.416l-.096 2.656c-1.856 0-3.274-.395-4.256-1.184-1.664.79-3.381 1.184-5.152 1.184-3.178 0-4.768-1.696-4.768-5.088 0-1.621.427-2.795 1.28-3.52.854-.725 2.187-1.163 4-1.312l4.128-.352v-1.152c0-.853-.192-1.45-.576-1.792-.362-.341-.906-.512-1.632-.512-.682 0-1.45.021-2.304.064a85.78 85.78 0 0 0-2.816.192l-1.024.064-.128-2.464c2.39-.555 4.534-.832 6.432-.832 1.963 0 3.37.416 4.224 1.248.854.832 1.28 2.176 1.28 4.032zm-3.456 3.616l-3.712.352c-1.472.128-2.208.928-2.208 2.4s.65 2.208 1.952 2.208c1.11 0 2.24-.17 3.392-.512l.576-.192v-4.256zM108.167 36V13.344h-3.488V36h3.488zm8.094 0V13.344h-3.488V36h3.488zm7.902 0V20h-3.488v16h3.488zm0-18.72V13.6h-3.488v3.68h3.488zm15.398 3.104l-.064 2.912a85.054 85.054 0 0 0-3.296-.384 23.995 23.995 0 0 0-2.176-.128c-1.152 0-1.941.139-2.368.416-.426.256-.64.672-.64 1.248s.246.981.736 1.216c.235.107.63.235 1.184.384a43.43 43.43 0 0 0 2.208.416c.896.15 1.654.341 2.272.576.619.235 1.12.544 1.504.928.384.363.662.832.832 1.408.192.555.288 1.248.288 2.08 0 1.685-.544 2.923-1.632 3.712-1.066.79-2.634 1.184-4.704 1.184-.661 0-1.397-.053-2.208-.16a43.444 43.444 0 0 1-2.72-.384l-.992-.16.128-2.912c1.28.17 2.379.299 3.296.384.939.085 1.686.128 2.24.128 1.152 0 1.963-.139 2.432-.416.47-.277.704-.736.704-1.376 0-.64-.224-1.088-.672-1.344-.234-.107-.63-.224-1.184-.352a21.651 21.651 0 0 0-2.112-.448c-.874-.15-1.632-.32-2.272-.512-.618-.213-1.141-.49-1.568-.832a3.535 3.535 0 0 1-.928-1.344c-.192-.533-.288-1.216-.288-2.048 0-.832.15-1.547.448-2.144a4.323 4.323 0 0 1 1.216-1.536 5.34 5.34 0 0 1 1.888-.896 8.824 8.824 0 0 1 2.432-.32c.683 0 1.44.043 2.272.128.832.085 1.75.213 2.752.384l.992.192zm12.44-.384v2.976h-4.416v7.04c0 .64.01 1.173.032 1.6.043.427.128.757.256.992s.31.405.544.512c.235.085.544.128.928.128l2.624-.096.16 2.784c-1.386.277-2.474.416-3.264.416-.896 0-1.653-.096-2.272-.288a3.172 3.172 0 0 1-1.472-.96c-.362-.448-.618-1.056-.768-1.824-.15-.768-.224-1.728-.224-2.88v-7.424h-2.048V20h2.048v-4.64h3.456V20h4.416zm9.229-.352c2.56 0 4.384.693 5.472 2.08 1.11 1.387 1.664 3.467 1.664 6.24 0 1.387-.128 2.603-.384 3.648s-.661 1.92-1.216 2.624c-.555.704-1.29 1.237-2.208 1.6-.896.341-2.005.512-3.328.512-1.301 0-2.41-.17-3.328-.512-.917-.363-1.653-.896-2.208-1.6-.555-.704-.96-1.579-1.216-2.624-.256-1.045-.384-2.261-.384-3.648 0-1.259.117-2.4.352-3.424s.619-1.899 1.152-2.624c.555-.725 1.29-1.28 2.208-1.664.917-.405 2.059-.608 3.424-.608zm-2.88 12.48c.47.853 1.43 1.28 2.88 1.28.704 0 1.29-.096 1.76-.288a2.52 2.52 0 0 0 1.12-.992c.277-.448.47-1.013.576-1.696.107-.704.16-1.536.16-2.496 0-1.941-.267-3.317-.8-4.128-.512-.81-1.45-1.216-2.816-1.216-1.365 0-2.315.405-2.848 1.216-.512.81-.768 2.187-.768 4.128 0 1.92.245 3.317.736 4.192z" fill="#163F59"/></svg>